inDegrees=no
num_controls=7
num_derivatives=13
num_iterations=90
num_multipliers=7
num_parameters=0
num_slacks=7
num_states=26
objective=0.454887
objective_accelerations=0.046852
objective_balance=0.001080
objective_effort=0.037288
objective_height=0.363751
objective_ligament=0.005916
solver_duration=946.113347
status=Solve_Succeeded
success=true
DataType=double
version=3
OpenSimVersion=4.5
endheader
time	/jointset/ground_pelvis/pelvis_tilt/value	/jointset/ground_pelvis/pelvis_tx/value	/jointset/ground_pelvis/pelvis_ty/value	/jointset/hip_r/hip_flexion_r/value	/jointset/hip_r/hip_adduction_r/value	/jointset/hip_r/hip_rotation_r/value	/jointset/back/lumbar_extension/value	/jointset/patellofemoral_r/patellar_flexion_r/value	/jointset/knee_r/knee_flexion_r/value	/jointset/knee_r/knee_adduction_r/value	/jointset/knee_r/knee_rotation_r/value	/jointset/ankle_r/ankle_angle_r/value	/jointset/subtalar_r/subtalar_angle_r/value	/jointset/ground_pelvis/pelvis_tilt/speed	/jointset/ground_pelvis/pelvis_tx/speed	/jointset/ground_pelvis/pelvis_ty/speed	/jointset/hip_r/hip_flexion_r/speed	/jointset/hip_r/hip_adduction_r/speed	/jointset/hip_r/hip_rotation_r/speed	/jointset/back/lumbar_extension/speed	/jointset/patellofemoral_r/patellar_flexion_r/speed	/jointset/knee_r/knee_flexion_r/speed	/jointset/knee_r/knee_adduction_r/speed	/jointset/knee_r/knee_rotation_r/speed	/jointset/ankle_r/ankle_angle_r/speed	/jointset/subtalar_r/subtalar_angle_r/speed	/forceset/tau_hip_flexion_r	/forceset/tau_hip_adduction_r	/forceset/tau_hip_rotation_r	/forceset/tau_knee_flexion_r	/forceset/tau_ankle_angle_r	/forceset/tau_subtalar_angle_r	/forceset/tau_lumbar_extension	lambda_cid13_p0	lambda_cid14_p0	lambda_cid14_p1	lambda_cid14_p2	lambda_cid14_p3	lambda_cid14_p4	lambda_cid14_p5	/jointset/ground_pelvis/pelvis_tilt/accel	/jointset/ground_pelvis/pelvis_tx/accel	/jointset/ground_pelvis/pelvis_ty/accel	/jointset/hip_r/hip_flexion_r/accel	/jointset/hip_r/hip_adduction_r/accel	/jointset/hip_r/hip_rotation_r/accel	/jointset/back/lumbar_extension/accel	/jointset/patellofemoral_r/patellar_flexion_r/accel	/jointset/knee_r/knee_flexion_r/accel	/jointset/knee_r/knee_adduction_r/accel	/jointset/knee_r/knee_rotation_r/accel	/jointset/ankle_r/ankle_angle_r/accel	/jointset/subtalar_r/subtalar_angle_r/accel	gamma_cid13_p0	gamma_cid14_p0	gamma_cid14_p1	gamma_cid14_p2	gamma_cid14_p3	gamma_cid14_p4	gamma_cid14_p5
0.5	-0.1205908297141453	0.0254060467077932	0.8108356057359365	0.8653280354208814	-0.2336007563596283	-0.09826057161231555	-0.6464612303231975	0.948129116161895	0.9481291161619954	-0.006667321441205721	0.1743052962700122	0.2882766497779223	0.1192666838298616	-0.3243857342016767	-0.19765429245028	-0.485442517451035	1.798108257419332	-0.05677982341806169	0.3929110629093354	-0.7378518541388394	1.927352052545229	1.927352052545225	-0.181231557356907	-0.002223687968295737	0.5276646094532175	0.1044154102484173	-0.1866728940275509	0.001068657532908219	0.02386455502542069	-0.2990680328226896	0.01314755892686895	-0.0039939104726043	0.2341398094449644	-8.540924696077465	-38.52204380213341	-7.038312604393313	-0.1021337273690368	-4.716824752054245	-641.5957366091485	64.09430492833572	0.308576475345599	0.5825702893184361	-0.4111162864145738	-1.189252928935045	0.06759265600200913	-0.01638828370685983	1.787817496676227	-1.269803953182214	-1.269803953182205	0.6518026352177462	-0.07765971000102491	-0.4672302431861013	-0.0008676932680839278	-7.458148066146848e-08	5.235622551762115e-08	1.494144925769256e-06	-3.256708374173851e-08	-1.831860885190682e-07	-1.399484631392862e-07	9.95177552872738e-07
0.51	-0.1238185810848399	0.0234588133150982	0.8059617056816105	0.8832469273823841	-0.2341656151118284	-0.09433343320951969	-0.6537497183168903	0.9673363188876084	0.9673363188876934	-0.008446459304068772	0.1742808253312323	0.2935289169753988	0.120309761404616	-0.3211125272120247	-0.191775007996784	-0.4892319292302895	1.785430462023772	-0.05618166210535452	0.3925409721936702	-0.7197606586400744	1.913836188644372	1.913836188644361	-0.1745456789727035	-0.00268806579216546	0.5227155821163849	0.1041864284098995	-0.1926369634503613	0.001392806885638807	0.02418349396851043	-0.3040345014442124	0.01221883970287808	-0.003252317013903086	0.2398078847105788	-7.57302138082975	-39.07378071613968	-6.89709322295187	-0.02841503438571618	-4.693477069174859	-646.2459456248498	64.83935941253068	0.3445025322917967	0.5931759274938266	-0.3470477545834011	-1.342985748265356	0.05755520249255806	-0.04380493136140594	1.83253347031624	-1.430307363913262	-1.430307363914363	0.6847460314070034	-0.0334277261963253	-0.5197681906638905	-0.03572394913448208	-8.003085054042937e-08	5.490368531982756e-08	1.569470034890358e-06	-3.749030741321945e-08	-1.929894427698486e-07	-1.373955840703398e-07	1.034797841425262e-06
0.52	-0.1270120384413176	0.02157088644776319	0.8010530726833129	0.901031852809275	-0.2347241667841541	-0.0904092928070882	-0.6608547417768234	0.9864007970231915	0.9864007970233433	-0.01015718526491338	0.17425119043273	0.2987294880571618	0.1213501870569891	-0.3175269313617079	-0.1857929873782812	-0.4923891062454644	1.771314950492256	-0.05551840744915071	0.392311462843397	-0.701158947387708	1.898807134528488	1.89880713452847	-0.1675491769330947	-0.003256479920691205	0.5173253863102706	0.1038850257717485	-0.1986010328731034	0.001716956238335332	0.0245024329121738	-0.3090009700656726	0.01129012047888018	-0.002510723555267476	0.2454759599762557	-6.665041402925226	-39.62279803540365	-6.746785802237368	0.03401854693166329	-4.7030037644133	-650.8792927251162	65.62562307353492	0.3710542474784388	0.6031175223198284	-0.2846693335986675	-1.476796156126424	0.08061132470131993	0.01172798937148413	1.889920647396454	-1.572441996187415	-1.572441996187459	0.7139273662988149	-0.09846697093214851	-0.5554639370423948	-0.01535185319476766	-8.174247844434681e-08	5.693760502052384e-08	1.570381491186693e-06	-3.318254138686851e-08	-1.95899901440757e-07	-1.24471550823484e-07	1.015609099842281e-06
0.53	-0.1301681750333838	0.01974321293643147	0.7961160535840145	0.9186686666846742	-0.2352754398772018	-0.08648981649506166	-0.6677712652572618	1.005307329092512	1.005307329092666	-0.0117994360830017	0.1742167856337436	0.303874087167682	0.1223878252243582	-0.3136548716902635	-0.1797318962033718	-0.4949060864223156	1.755823483283058	-0.05469644705088672	0.3912961053496288	-0.682070317232285	1.882233128016132	1.882233128016134	-0.1611608874329755	-0.003512158177076425	0.5115331234544376	0.1036860064752814	-0.2044968519329249	0.00214843630258763	0.02472118967711982	-0.3139771050700169	0.01017137102367956	-0.001884425086749035	0.2510443387545712	-5.817962020050417	-40.250402499471	-6.662677503458131	0.1097096960571723	-4.582632404910957	-655.5977560622827	66.29937728526889	0.4021170336942212	0.6090382320397448	-0.2189418176106562	-1.618964575726226	0.08904260052090621	-0.2014671788711075	1.929648919682495	-1.73978614836984	-1.739786148367171	0.5625131325635744	0.02776757704053324	-0.6003465081272005	-0.01542498492589197	-7.764486283949394e-08	5.352895553508931e-08	1.493265923162628e-06	-3.90262387654713e-08	-1.882817047234669e-07	-1.168822618808282e-07	9.799457135358691e-07
0.54	-0.1332842239873741	0.01797643700024065	0.7911571187913725	0.936143837373526	-0.2358172825256147	-0.08258915367000766	-0.6744946394921283	1.024040139862796	1.024040139862928	-0.01338555732779493	0.1741832012181561	0.3089589158399867	0.1234248235953544	-0.3095094037501702	-0.1736134723500996	-0.4967722449142699	1.738986313177459	-0.05363231852738656	0.3885487654510759	-0.6625290982741533	1.86406287471937	1.864062874719391	-0.1563232623050856	-0.003092403232164908	0.5053712986676676	0.1037570664966925	-0.2103926709926604	0.002579916366912341	0.02493994644147332	-0.3189532400743823	0.00905262156850461	-0.001258126618096915	0.2566127175329577	-5.032332872467483	-40.87575498673812	-6.570025162375471	0.1747280649019368	-4.495141384649966	-660.3054223365353	67.01228784876481	0.4257359012080979	0.6145840579923777	-0.1545049966193137	-1.745936735406821	0.1290449497484228	-0.3346684915855279	1.980438407938125	-1.891691353068665	-1.891691353068665	0.4037944918529398	0.03661966932725668	-0.6293763232297904	0.03866401038084625	-6.711999909727809e-08	4.409874014159507e-08	1.329822583550034e-06	-5.610134246444854e-08	-1.690147828958295e-07	-1.15195243232181e-07	9.260550607269365e-07
0.55	-0.1363574362167544	0.01627109006206291	0.7861827988927091	0.9534438810926658	-0.2363480804260545	-0.07871956878462695	-0.6810204838262114	1.042583769350978	1.042583769351285	-0.01492581558959759	0.1741551675466509	0.3139801220583063	0.1244624680863807	-0.3050820512408879	-0.1674499735543335	-0.4979799393350313	1.720788775799491	-0.0525674083143552	0.3855630766740253	-0.6425829030841099	1.844442801221262	1.844442801221284	-0.1514581770329601	-0.002554708532518414	0.4987920583172898	0.1036725418575859	-0.2161593578350329	0.002824383983098659	0.02520541061495753	-0.3240466024716206	0.007907348020658721	-0.000705239429468826	0.2620401230204552	-4.308179562214489	-41.52121822471825	-6.512986254937973	0.2456637592874512	-4.321965269317023	-665.0616490143614	67.66956981609452	0.458888305843884	0.6180923488200908	-0.08715519734315333	-1.891705516369139	0.08924296868150636	-0.2514032616768768	2.010239893222051	-2.030186326537414	-2.030186326537446	0.5685611050882847	0.05631493843155599	-0.6839148262373602	-0.04671770664159407	-6.499429976873793e-08	3.35385812345775e-08	1.203013636484904e-06	-1.033996758842292e-07	-1.528456906280196e-07	-1.094983723038296e-07	8.547709874283329e-07
0.5600000000000001	-0.1393848442450126	0.01462755002353231	0.7811997513433316	0.970554940782577	-0.2368694234420152	-0.07487401762522329	-0.6873451602446526	1.060924593908504	1.060924593908985	-0.01640928388648162	0.1741313049357165	0.3189331924860619	0.1254963259299013	-0.3003485635293995	-0.1612520924206729	-0.4985177750571503	1.701189507326419	-0.05174134163731209	0.383742020260512	-0.622295515146664	1.823501888588934	1.823501888588956	-0.1449652693530273	-0.002258191106936242	0.4917441405550886	0.1029997369950759	-0.2219260446773267	0.003068851599312492	0.02547087478781453	-0.329139964868884	0.006762074472825326	-0.000152352240778961	0.2674675285080231	-3.645035386969291	-42.16506881263152	-6.447527076751706	0.3059630927592064	-4.182624669452794	-669.8178421469954	68.36741889055986	0.4869629416492374	0.6214605255712257	-0.02053325689085387	-2.026282954427779	0.08127624255065873	-0.1017420188781606	2.048676957418588	-2.1558591799128	-2.15585917991279	0.7293589734143578	-0.01161578548555149	-0.7231118055945013	-0.07899203429986064	-7.294759773660829e-08	2.162249011133195e-08	1.12016596047673e-06	-1.869658849689728e-07	-1.403939938320026e-07	-9.898967863983344e-08	7.626148095421245e-07
0.5700000000000001	-0.1423635996137818	0.01304607029521582	0.7762147092520117	0.9874632946626637	-0.2373830558845616	-0.07104352526075185	-0.6934653743054234	1.079049150525396	1.079049150525708	-0.01782292896530262	0.1741098873856204	0.3238135533519272	0.1265215689909707	-0.2953691140573191	-0.1550465504975239	-0.4983744032956394	1.680268350182011	-0.0509622022443361	0.3822434775786258	-0.6017060618663091	1.801156527923886	1.801156527923895	-0.1378543168640322	-0.001994963174787681	0.4842605147881396	0.1020574494446455	-0.2274106394397994	0.00342671461220201	0.02566813978765576	-0.3344668860608948	0.005717558354901286	0.0002533038287145262	0.2726187760749532	-3.042040783671371	-42.79533791543266	-6.453903140667247	0.3894460791252657	-3.953922278128601	-674.6233851237251	68.96861986593406	0.5084463507115051	0.6196697671693256	0.04918977024964369	-2.156968691715443	0.07969553846712747	-0.1909847705940476	2.070264784477058	-2.311795049200678	-2.311795049202761	0.6885254461330568	0.04983420474791899	-0.771146276039226	-0.1004206958325778	-7.52003246491596e-08	1.512285867335292e-08	1.042394891546479e-06	-2.28582174145428e-07	-1.31164274156608e-07	-8.821025966219876e-08	6.93096738331842e-07
0.58	-0.1452915584076684	0.01152655973442669	0.771234584353824	1.004156049651877	-0.2378882043829843	-0.06723143319870872	-0.6993784567791597	1.096942669427682	1.096942669427961	-0.01916815210735462	0.1740920105392498	0.3286170462973673	0.1275376744604546	-0.2901892485562774	-0.1488582589152022	-0.4975343364308539	1.65806972914688	-0.05004455281950329	0.3800619597867321	-0.5808691977406109	1.777294345682842	1.777294345682838	-0.1312808819954075	-0.001550050355322454	0.4763705564694229	0.1011722186774961	-0.2328952342022094	0.00378457762499622	0.02586540478769228	-0.3397938072528692	0.004673042236952414	0.00065895989804591	0.2777700236419471	-2.497863399856018	-43.42489061752779	-6.452518476312519	0.4629700617257708	-3.758369195517455	-679.4412153163455	69.61152188387558	0.5270461474414641	0.6180104574057079	0.1188057637640766	-2.281775732572746	0.1089782489220142	-0.2383370408797225	2.098159126487267	-2.459223495112184	-2.459223495112185	0.621855449340212	0.0247211919778312	-0.8043783159481317	-0.06758067764367401	-7.002905204780732e-08	1.567722124409284e-08	9.712352178805004e-07	-2.155660094878352e-07	-1.261306177080705e-07	-7.70782681830815e-08	6.530608525599739e-07
0.59	-0.1481667345587873	0.01006882141574991	0.7662663178681945	1.020620569841954	-0.2383834481460698	-0.06344409004562172	-0.705081943474429	1.114590298588518	1.114590298588537	-0.02045015998704997	0.1740790017062009	0.3333398024793081	0.1285453298615964	-0.2848087081894379	-0.1426941837514062	-0.4960040978454717	1.634624847657607	-0.04898107295141695	0.3773314347169172	-0.5597942220762158	1.752004968135583	1.752004968135551	-0.1251900639049259	-0.001057058000553066	0.4681304441204961	0.1003744144918312	-0.2382616567668981	0.004123508979760798	0.02603855835967665	-0.3450300206234005	0.003548137698999475	0.0009919293756135929	0.2827739638505501	-2.011332220895476	-44.07885756026022	-6.48836884907345	0.5440210339375769	-3.512110558819476	-684.1303397496292	70.16970673749525	0.5491494465044239	0.6148645696080191	0.1873482220302391	-2.407262652335291	0.1085148705646962	-0.3018072842993414	2.1172546719322	-2.597759236723784	-2.597759236728279	0.592416158659031	0.060778387739892	-0.8413893375207167	-0.08342654136873531	-6.505017456027399e-08	1.58227664187793e-08	8.976845773178844e-07	-2.035318167976688e-07	-1.204166478219871e-07	-6.633690835052288e-08	6.087942501430285e-07
